<?xml version="1.0" encoding="UTF-8"?>
<!DOCTYPE svg PUBLIC "-//W3C//DTD SVG 1.1//EN" "http://www.w3.org/Graphics/SVG/1.1/DTD/svg11.dtd">
<!-- Creator: CorelDRAW 2019 (64-Bit) -->
<svg xmlns="http://www.w3.org/2000/svg" xml:space="preserve" width="65.924mm" height="17.121mm" version="1.1" style="shape-rendering:geometricPrecision; text-rendering:geometricPrecision; image-rendering:optimizeQuality; fill-rule:evenodd; clip-rule:evenodd"
viewBox="0 0 6592.4 1712.1"
 xmlns:xlink="http://www.w3.org/1999/xlink">
 <defs>
  <style type="text/css">
   <![CDATA[
    .fil3 {fill:#1B1E63}
    .fil0 {fill:#292A6D}
    .fil1 {fill:#7868E5}
    .fil2 {fill:url(#id0)}
   ]]>
  </style>
  <linearGradient id="id0" gradientUnits="userSpaceOnUse" x1="5724.56" y1="665.16" x2="6491.85" y2="188.91">
   <stop offset="0" style="stop-opacity:1; stop-color:#292A6D"/>
   <stop offset="0.0588235" style="stop-opacity:1; stop-color:#292A6D"/>
   <stop offset="0.141176" style="stop-opacity:1; stop-color:#2B3272"/>
   <stop offset="0.278431" style="stop-opacity:1; stop-color:#32467F"/>
   <stop offset="0.439216" style="stop-opacity:1; stop-color:#3D6995"/>
   <stop offset="0.619608" style="stop-opacity:1; stop-color:#4C98B3"/>
   <stop offset="0.819608" style="stop-opacity:1; stop-color:#60D4D9"/>
   <stop offset="0.85098" style="stop-opacity:1; stop-color:#63DEDF"/>
   <stop offset="1" style="stop-opacity:1; stop-color:#63DEDF"/>
  </linearGradient>
 </defs>
 <g id="Capa_x0020_1">
  <metadata id="CorelCorpID_0Corel-Layer"/>
  <g id="_2409154096624">
   <path class="fil0" d="M5142.01 467.85l481.54 0 0 460.3c-127.72,-0.01 -250.16,-48.51 -340.47,-134.84 -90.3,-86.32 -141.05,-203.39 -141.07,-325.46z"/>
   <path class="fil1" d="M6105.06 928.15l-481.51 0 0 460.31c127.69,0 250.19,-48.49 340.49,-134.82 90.3,-86.32 141.02,-203.41 141.02,-325.49z"/>
   <path class="fil2" d="M6105.06 7.54c-127.68,0.03 -250.13,48.54 -340.44,134.86 -90.3,86.32 -141.04,203.38 -141.07,325.45l481.51 0 0 460.3c127.72,0 250.19,-48.49 340.5,-134.82 90.3,-86.32 141.05,-203.4 141.05,-325.48 0,-122.09 -50.75,-239.17 -141.05,-325.49 -90.31,-86.32 -212.78,-134.82 -340.5,-134.82z"/>
   <path class="fil1" d="M207.73 1719.65c-70.21,0 -123.26,-17.46 -159.15,-52.38 -35.89,-34.93 -54.02,-84.54 -54.39,-148.83 0,-71.66 23.07,-126.03 69.2,-163.12 46.13,-37.08 118.92,-59.13 218.38,-66.14l178.32 -12.11 0 -24.54c0.51,-22.35 -1.81,-44.67 -6.92,-66.48 -3.97,-16.29 -13.05,-31.04 -26.02,-42.26 -14.95,-11.81 -32.86,-19.67 -51.97,-22.82 -27.99,-4.96 -56.44,-7.18 -84.9,-6.62 -36.99,0.25 -73.94,2.28 -110.71,6.09 -41.15,4.05 -82.81,10.09 -124.97,18.12l-12.94 -133.02c93.08,-16.82 187.53,-25.81 282.25,-26.85 113.2,0 196.75,19.69 250.63,59.07 53.88,39.37 80.8,100.67 80.75,183.88l0 491.27 -159.85 0 -17.85 -89.9 -11.28 0c-81.65,64.43 -167.84,96.64 -258.58,96.64zm80.06 -131.56c30.37,-0.44 60.37,-6.36 88.43,-17.46 29.79,-11.05 58.08,-25.46 84.28,-42.93l0 -149.03 -119.36 10.78c-56.19,4.41 -95.26,14.69 -117.22,30.83 -21.96,16.14 -32.96,42.09 -33,77.85 -0.1,60.02 32.15,90 96.73,89.96l0.14 0z"/>
   <polygon class="fil1" points="748.2,1008.19 748.2,988.34 955.79,988.34 1106.02,1420.54 1143.93,1564.21 1159.36,1564.21 1197.28,1420.54 1351.73,988.34 1555.66,988.34 1555.66,1008.19 1270.56,1712.9 1029.07,1712.9 "/>
   <path class="fil1" d="M1821.12 1719.65c-70.28,0 -123.33,-17.46 -159.18,-52.38 -35.82,-34.93 -53.95,-84.54 -54.32,-148.83 0,-71.66 23.21,-126.03 69.56,-163.12 46.36,-37.08 119.12,-59.13 218.31,-66.14l178.38 -12.11 0 -24.54c0.56,-22.35 -1.77,-44.67 -6.9,-66.48 -3.97,-16.27 -13.02,-31.01 -25.96,-42.26 -14.97,-11.78 -32.86,-19.64 -51.96,-22.82 -28.02,-4.96 -56.49,-7.18 -84.99,-6.62 -36.99,0.25 -73.92,2.28 -110.7,6.09 -41.25,4.05 -82.89,10.09 -124.96,18.12l-12.68 -132.88c92.98,-16.86 187.3,-25.89 281.92,-26.99 113.29,0 196.82,19.69 250.61,59.07 53.79,39.37 80.7,100.67 80.75,183.88l0 491.27 -160.04 0 -18.26 -89.9 -11.22 0c-81.41,64.43 -167.56,96.64 -258.36,96.64zm79.98 -131.56c30.37,-0.45 60.4,-6.37 88.5,-17.46 29.77,-11.08 58.05,-25.49 84.27,-42.93l0 -149.03 -119.43 10.78c-56.15,4.41 -95.2,14.69 -117.21,30.83 -22.01,16.14 -33.02,42.09 -33.02,77.85 0,60.02 32.3,90 96.89,89.96z"/>
   <polygon class="fil1" points="2451.54,628.31 2646.75,628.31 2646.75,1713.1 2451.54,1713.1 "/>
   <path class="fil3" d="M3096.09 1717.87c-52.71,0 -103.61,-1.32 -152.69,-3.97 -49.11,-2.64 -88.45,-6.06 -118.06,-10.25l0 -760.68c50.06,-3.48 100.04,-6.15 149.94,-8 49.93,-1.85 92.5,-2.73 127.74,-2.65 166.64,0 288.87,31.65 366.74,94.92 77.87,63.28 116.76,162.5 116.66,297.66 0,136.26 -39.35,235.81 -118.03,298.65 -78.72,62.84 -202.81,94.28 -372.3,94.32zm27.7 -116.74c47.23,0.83 94.41,-4.3 140.26,-15.28 35.37,-8.39 68.05,-25.02 95.06,-48.42 25.43,-23.62 44.11,-53.09 54.19,-85.6 23.07,-83.07 23.07,-170.46 0,-253.53 -10.13,-32.63 -29.08,-62.15 -54.88,-85.6 -27.35,-23.31 -60.21,-39.92 -95.77,-48.41 -45.8,-11.04 -92.95,-16.25 -140.18,-15.48 -20.35,0 -43.71,0.66 -70.09,1.98 -26.38,1.32 -51.62,2.91 -75.64,4.63l0 536.18c24.31,4.19 48.89,6.86 73.55,8 22.23,1.02 46.75,1.53 73.55,1.53l-0.05 0z"/>
   <path class="fil3" d="M3598.67 1699.34l315.19 -757.83 224.9 0 315.17 757.83 0 7.94 -148.56 0 -86.07 -199.1 -387.51 0 -86.07 199.1 -147.05 0 0 -7.94zm587.34 -292.03l-98.61 -233.56 -55.35 -131.37 -13.83 0 -54.19 132.69 -100.12 232.24 322.1 0z"/>
   <path class="fil3" d="M4880.18 1717.87c-134.25,0 -236.75,-33.07 -307.5,-99.22 -70.78,-66.14 -106.18,-163.93 -106.23,-293.36 0,-129.11 35.19,-227.1 105.54,-293.95 70.33,-66.85 173.06,-100.25 308.19,-100.21 132.34,0 233.83,33.41 304.45,100.21 70.62,66.81 106.05,164.79 106.23,293.95 0,129.25 -35.43,227.04 -106.23,293.36 -70.8,66.32 -172.3,99.4 -304.45,99.22zm0 -116.75c91.62,0 157.55,-21.89 197.82,-65.68 40.27,-43.79 60.41,-113.92 60.41,-210.41 0,-96.4 -20.59,-166.73 -61.78,-211.01 -41.2,-44.27 -106.68,-66.32 -196.45,-66.14 -91.63,0 -157.8,22.05 -198.52,66.14 -40.75,44.1 -61.12,114.44 -61.12,211.01 0,96.53 20.37,166.67 61.12,210.41 40.72,43.74 106.89,65.64 198.52,65.68z"/>
  </g>
 </g>
</svg>
